# xmcd CD database file
#
# Track frame offsets:
#	150
#	33692
#	63411
#	95938
#	139419
#	165795
#	193852
#
# Disc length: 2853 seconds
#
# Revision: 0
# Processed by: cddbd v1.5.2PL0 Copyright (c) Steve Scherf et al.
# Submitted via: CDex 1.70beta2
#
DISCID=650b2307
DTITLE=Blue Exercise - Landeier
DYEAR=2005
DGENRE=Jazz
TTITLE0=Spock's Groove
TTITLE1=Charaktrerstärke
TTITLE2=Angry Blues
TTITLE3=Narragansett
TTITLE4=Beautiful Love
TTITLE5=Dura
TTITLE6=Watergames
EXTD=YEAR: 2005
EXTT0=
EXTT1=
EXTT2=
EXTT3=
EXTT4=
EXTT5=
EXTT6=
PLAYORDER=
